<svg width="250" height="250" viewBox="0 0 250 250" fill="none" xmlns="http://www.w3.org/2000/svg">
  <mask id="mask0" mask-type="alpha" maskUnits="userSpaceOnUse" x="0" y="0" width="250" height="250">
    <rect width="250" height="250" fill="black" />
  </mask>
  <g mask="url(#mask0)">
    <rect width="250" height="250" fill="#001720" />
    <mask id="mask1" mask-type="alpha" maskUnits="userSpaceOnUse" x="24" y="34" width="206" height="182">
      <mask id="mask2" maskUnits="userSpaceOnUse" x="122" y="34" width="108" height="244">
        <ellipse cx="176.109" cy="156.237" rx="50.8906" ry="118.763" stroke="white" stroke-width="6" />
      </mask>
      <g mask="url(#mask2)">
        <rect x="112.496" y="-51.5976" width="127.226" height="178.144" fill="white" />
      </g>
      <mask id="mask3" maskUnits="userSpaceOnUse" x="24" y="-28" width="108" height="244">
        <ellipse rx="50.8906" ry="118.763" transform="matrix(1 0 0 -1 77.8906 93.7628)" stroke="white" stroke-width="6" />
      </mask>
      <g mask="url(#mask3)">
        <rect width="127.226" height="178.144" transform="matrix(1 0 0 -1 14.2773 301.598)" fill="white" />
      </g>
    </mask>
    <g mask="url(#mask1)">
      <rect width="250" height="250" fill="url(#paint0_radial)" />
    </g>
    <g filter="url(#filter0_d)">
      <path d="M60.6292 130.55C60.3172 130.754 59.9392 130.91 59.4952 131.018C59.0512 131.126 58.6402 131.18 58.2622 131.18C57.3142 131.18 56.5702 130.928 56.0302 130.424C55.4962 129.92 55.2292 129.287 55.2292 128.525V122.486H52.9972V121.55H55.2292V119.372L56.3452 119.237V121.55H59.6752L59.5222 122.486H56.3452V128.498C56.3452 129.044 56.4922 129.467 56.7862 129.767C57.0862 130.061 57.5872 130.208 58.2892 130.208C58.6492 130.208 58.9822 130.166 59.2882 130.082C59.5942 129.998 59.8792 129.887 60.1432 129.749L60.6292 130.55ZM64.3032 131V130.064H65.8422V122.495H64.3032V121.55H66.6972L66.9042 123.818C67.2762 123.05 67.7202 122.45 68.2362 122.018C68.7582 121.58 69.4602 121.361 70.3422 121.361C70.5882 121.361 70.8072 121.379 70.9992 121.415C71.1972 121.451 71.4042 121.496 71.6202 121.55L71.3052 122.603C71.0952 122.543 70.9092 122.501 70.7472 122.477C70.5912 122.447 70.4112 122.432 70.2072 122.432C69.4452 122.432 68.7972 122.693 68.2632 123.215C67.7292 123.731 67.2942 124.55 66.9582 125.672V130.064H68.9022V131H64.3032ZM70.4142 124.52V122.675L70.4862 121.55H71.6202L71.4942 124.52H70.4142ZM81.4232 129.137C81.4232 129.521 81.4892 129.803 81.6212 129.983C81.7532 130.157 81.9572 130.286 82.2332 130.37L81.9272 131.189C81.5672 131.135 81.2462 131.003 80.9642 130.793C80.6822 130.583 80.4842 130.262 80.3702 129.83C80.0402 130.268 79.6262 130.604 79.1282 130.838C78.6362 131.066 78.0782 131.18 77.4542 131.18C76.5182 131.18 75.7832 130.916 75.2492 130.388C74.7152 129.86 74.4482 129.155 74.4482 128.273C74.4482 127.313 74.8202 126.578 75.5642 126.068C76.3142 125.558 77.4032 125.303 78.8312 125.303H80.2622V124.385C80.2622 123.647 80.0492 123.131 79.6232 122.837C79.2032 122.537 78.6272 122.387 77.8952 122.387C77.5772 122.387 77.2172 122.423 76.8152 122.495C76.4132 122.567 75.9662 122.69 75.4742 122.864L75.1502 121.946C75.7202 121.736 76.2362 121.589 76.6982 121.505C77.1662 121.421 77.6192 121.379 78.0572 121.379C79.1672 121.379 80.0042 121.652 80.5682 122.198C81.1382 122.738 81.4232 123.455 81.4232 124.349V129.137ZM77.6702 130.289C78.1862 130.289 78.6692 130.163 79.1192 129.911C79.5692 129.659 79.9502 129.308 80.2622 128.858V126.158H78.6962C77.5742 126.158 76.7912 126.356 76.3472 126.752C75.9032 127.142 75.6812 127.661 75.6812 128.309C75.6812 128.963 75.8432 129.458 76.1672 129.794C76.4912 130.124 76.9922 130.289 77.6702 130.289ZM85.7991 131V121.55H86.7351L86.8251 122.927C87.1971 122.435 87.6861 122.054 88.2921 121.784C88.9041 121.514 89.4741 121.379 90.0021 121.379C90.9681 121.379 91.6551 121.625 92.0631 122.117C92.4771 122.609 92.6841 123.29 92.6841 124.16V131H91.5681V125.357C91.5681 124.637 91.5291 124.052 91.4511 123.602C91.3731 123.152 91.2051 122.825 90.9471 122.621C90.6891 122.411 90.2841 122.306 89.7321 122.306C89.3121 122.306 88.9161 122.399 88.5441 122.585C88.1781 122.765 87.8541 122.99 87.5721 123.26C87.2961 123.524 87.0771 123.782 86.9151 124.034V131H85.7991ZM99.6341 130.163C100.438 130.163 101.068 130.01 101.524 129.704C101.986 129.392 102.217 128.984 102.217 128.48C102.217 128.168 102.166 127.898 102.064 127.67C101.968 127.436 101.755 127.229 101.425 127.049C101.101 126.863 100.6 126.689 99.9221 126.527C99.2441 126.359 98.6561 126.173 98.1581 125.969C97.6661 125.765 97.2851 125.498 97.0151 125.168C96.7451 124.838 96.6101 124.4 96.6101 123.854C96.6101 123.332 96.7571 122.888 97.0511 122.522C97.3511 122.15 97.7591 121.868 98.2751 121.676C98.7971 121.478 99.3851 121.379 100.039 121.379C100.777 121.379 101.419 121.478 101.965 121.676C102.517 121.874 102.979 122.114 103.351 122.396L102.829 123.224C102.481 122.978 102.094 122.774 101.668 122.612C101.242 122.45 100.702 122.369 100.048 122.369C99.2141 122.369 98.6291 122.501 98.2931 122.765C97.9571 123.029 97.7891 123.362 97.7891 123.764C97.7891 124.076 97.8701 124.334 98.0321 124.538C98.2001 124.736 98.4731 124.913 98.8511 125.069C99.2291 125.219 99.7391 125.381 100.381 125.555C100.999 125.717 101.539 125.912 102.001 126.14C102.463 126.368 102.823 126.665 103.081 127.031C103.339 127.397 103.468 127.871 103.468 128.453C103.468 129.119 103.279 129.653 102.901 130.055C102.529 130.451 102.049 130.739 101.461 130.919C100.873 131.093 100.261 131.18 99.6251 131.18C98.7911 131.18 98.0861 131.057 97.5101 130.811C96.9401 130.565 96.4661 130.277 96.0881 129.947L96.7811 129.128C97.1531 129.44 97.5821 129.692 98.0681 129.884C98.5541 130.07 99.0761 130.163 99.6341 130.163ZM111.435 130.154C111.939 130.154 112.404 130.076 112.83 129.92C113.262 129.764 113.652 129.563 114 129.317L114.585 130.073C114.171 130.421 113.676 130.694 113.1 130.892C112.524 131.084 111.984 131.18 111.48 131.18C110.562 131.18 109.782 130.982 109.14 130.586C108.504 130.184 108.018 129.617 107.682 128.885C107.352 128.153 107.187 127.295 107.187 126.311C107.187 125.375 107.352 124.535 107.682 123.791C108.018 123.047 108.504 122.459 109.14 122.027C109.782 121.595 110.565 121.379 111.489 121.379C112.059 121.379 112.602 121.469 113.118 121.649C113.64 121.829 114.12 122.096 114.558 122.45L113.964 123.251C113.538 122.957 113.115 122.738 112.695 122.594C112.281 122.444 111.861 122.369 111.435 122.369C110.565 122.369 109.845 122.699 109.275 123.359C108.711 124.019 108.429 125.003 108.429 126.311C108.429 127.193 108.558 127.919 108.816 128.489C109.074 129.053 109.428 129.473 109.878 129.749C110.334 130.019 110.853 130.154 111.435 130.154ZM118.268 131V130.064H119.807V122.495H118.268V121.55H120.662L120.869 123.818C121.241 123.05 121.685 122.45 122.201 122.018C122.723 121.58 123.425 121.361 124.307 121.361C124.553 121.361 124.772 121.379 124.964 121.415C125.162 121.451 125.369 121.496 125.585 121.55L125.27 122.603C125.06 122.543 124.874 122.501 124.712 122.477C124.556 122.447 124.376 122.432 124.172 122.432C123.41 122.432 122.762 122.693 122.228 123.215C121.694 123.731 121.259 124.55 120.923 125.672V130.064H122.867V131H118.268ZM124.379 124.52V122.675L124.451 121.55H125.585L125.459 124.52H124.379ZM133.462 121.55V130.028H136.207V131H129.358V130.028H132.346V122.522H129.448V121.55H133.462ZM132.409 117.275C132.697 117.275 132.925 117.362 133.093 117.536C133.261 117.71 133.345 117.92 133.345 118.166C133.345 118.43 133.261 118.652 133.093 118.832C132.925 119.006 132.697 119.093 132.409 119.093C132.139 119.093 131.92 119.006 131.752 118.832C131.584 118.652 131.5 118.43 131.5 118.166C131.5 117.92 131.584 117.71 131.752 117.536C131.92 117.362 132.139 117.275 132.409 117.275ZM140.88 122.855C141.24 122.381 141.651 122.018 142.113 121.766C142.581 121.508 143.097 121.379 143.661 121.379C144.513 121.379 145.2 121.583 145.722 121.991C146.244 122.399 146.622 122.972 146.856 123.71C147.096 124.442 147.216 125.297 147.216 126.275C147.216 127.223 147.072 128.066 146.784 128.804C146.502 129.542 146.085 130.124 145.533 130.55C144.981 130.97 144.3 131.18 143.49 131.18C142.362 131.18 141.48 130.781 140.844 129.983L140.736 131H139.764V117.725L140.88 117.572V122.855ZM143.247 130.208C144.123 130.208 144.792 129.881 145.254 129.227C145.722 128.567 145.956 127.577 145.956 126.257C145.956 125.417 145.863 124.706 145.677 124.124C145.497 123.542 145.224 123.098 144.858 122.792C144.498 122.486 144.045 122.333 143.499 122.333C142.911 122.333 142.395 122.51 141.951 122.864C141.507 123.212 141.15 123.584 140.88 123.98V128.876C141.15 129.278 141.492 129.602 141.906 129.848C142.326 130.088 142.773 130.208 143.247 130.208ZM151.367 126.725C151.385 127.517 151.526 128.168 151.79 128.678C152.06 129.182 152.414 129.554 152.852 129.794C153.29 130.034 153.767 130.154 154.283 130.154C154.781 130.154 155.222 130.082 155.606 129.938C155.996 129.794 156.404 129.575 156.83 129.281L157.415 130.118C156.977 130.454 156.482 130.715 155.93 130.901C155.384 131.087 154.85 131.18 154.328 131.18C153.458 131.18 152.711 130.976 152.087 130.568C151.469 130.16 150.995 129.59 150.665 128.858C150.335 128.12 150.17 127.262 150.17 126.284C150.17 125.324 150.338 124.475 150.674 123.737C151.01 122.999 151.475 122.423 152.069 122.009C152.669 121.589 153.365 121.379 154.157 121.379C154.925 121.379 155.582 121.565 156.128 121.937C156.674 122.309 157.091 122.837 157.379 123.521C157.673 124.199 157.82 125.009 157.82 125.951C157.82 126.113 157.817 126.26 157.811 126.392C157.805 126.518 157.799 126.629 157.793 126.725H151.367ZM154.184 122.423C153.422 122.423 152.78 122.693 152.258 123.233C151.742 123.773 151.451 124.601 151.385 125.717H156.758C156.734 124.607 156.485 123.782 156.011 123.242C155.537 122.696 154.928 122.423 154.184 122.423ZM161.26 126.608V125.564H168.298V126.608H161.26ZM175.185 130.163C175.989 130.163 176.619 130.01 177.075 129.704C177.537 129.392 177.768 128.984 177.768 128.48C177.768 128.168 177.717 127.898 177.615 127.67C177.519 127.436 177.306 127.229 176.976 127.049C176.652 126.863 176.151 126.689 175.473 126.527C174.795 126.359 174.207 126.173 173.709 125.969C173.217 125.765 172.836 125.498 172.566 125.168C172.296 124.838 172.161 124.4 172.161 123.854C172.161 123.332 172.308 122.888 172.602 122.522C172.902 122.15 173.31 121.868 173.826 121.676C174.348 121.478 174.936 121.379 175.59 121.379C176.328 121.379 176.97 121.478 177.516 121.676C178.068 121.874 178.53 122.114 178.902 122.396L178.38 123.224C178.032 122.978 177.645 122.774 177.219 122.612C176.793 122.45 176.253 122.369 175.599 122.369C174.765 122.369 174.18 122.501 173.844 122.765C173.508 123.029 173.34 123.362 173.34 123.764C173.34 124.076 173.421 124.334 173.583 124.538C173.751 124.736 174.024 124.913 174.402 125.069C174.78 125.219 175.29 125.381 175.932 125.555C176.55 125.717 177.09 125.912 177.552 126.14C178.014 126.368 178.374 126.665 178.632 127.031C178.89 127.397 179.019 127.871 179.019 128.453C179.019 129.119 178.83 129.653 178.452 130.055C178.08 130.451 177.6 130.739 177.012 130.919C176.424 131.093 175.812 131.18 175.176 131.18C174.342 131.18 173.637 131.057 173.061 130.811C172.491 130.565 172.017 130.277 171.639 129.947L172.332 129.128C172.704 129.44 173.133 129.692 173.619 129.884C174.105 130.07 174.627 130.163 175.185 130.163ZM190.145 130.55C189.833 130.754 189.455 130.91 189.011 131.018C188.567 131.126 188.156 131.18 187.778 131.18C186.83 131.18 186.086 130.928 185.546 130.424C185.012 129.92 184.745 129.287 184.745 128.525V122.486H182.513V121.55H184.745V119.372L185.861 119.237V121.55H189.191L189.038 122.486H185.861V128.498C185.861 129.044 186.008 129.467 186.302 129.767C186.602 130.061 187.103 130.208 187.805 130.208C188.165 130.208 188.498 130.166 188.804 130.082C189.11 129.998 189.395 129.887 189.659 129.749L190.145 130.55ZM200.938 130.55C200.626 130.754 200.248 130.91 199.804 131.018C199.36 131.126 198.949 131.18 198.571 131.18C197.623 131.18 196.879 130.928 196.339 130.424C195.805 129.92 195.538 129.287 195.538 128.525V122.486H193.306V121.55H195.538V119.372L196.654 119.237V121.55H199.984L199.831 122.486H196.654V128.498C196.654 129.044 196.801 129.467 197.095 129.767C197.395 130.061 197.896 130.208 198.598 130.208C198.958 130.208 199.291 130.166 199.597 130.082C199.903 129.998 200.188 129.887 200.452 129.749L200.938 130.55Z" fill="white" />
      <path d="M60.6292 130.55L60.9028 130.968L61.3075 130.704L61.0567 130.291L60.6292 130.55ZM59.4952 131.018L59.377 130.532L59.4952 131.018ZM56.0302 130.424L55.687 130.788L55.6891 130.79L56.0302 130.424ZM55.2292 122.486H55.7292V121.986H55.2292V122.486ZM52.9972 122.486H52.4972V122.986H52.9972V122.486ZM52.9972 121.55V121.05H52.4972V121.55H52.9972ZM55.2292 121.55V122.05H55.7292V121.55H55.2292ZM55.2292 119.372L55.1692 118.876L54.7292 118.929V119.372H55.2292ZM56.3452 119.237H56.8452V118.673L56.2852 118.741L56.3452 119.237ZM56.3452 121.55H55.8452V122.05H56.3452V121.55ZM59.6752 121.55L60.1687 121.631L60.2636 121.05H59.6752V121.55ZM59.5222 122.486V122.986H59.9471L60.0157 122.567L59.5222 122.486ZM56.3452 122.486V121.986H55.8452V122.486H56.3452ZM56.7862 129.767L56.429 130.117L56.4363 130.124L56.7862 129.767ZM60.1432 129.749L60.5707 129.49L60.3273 129.089L59.9116 129.306L60.1432 129.749ZM60.3556 130.132C60.1006 130.298 59.7778 130.435 59.377 130.532L59.6134 131.504C60.1006 131.385 60.5339 131.21 60.9028 130.968L60.3556 130.132ZM59.377 130.532C58.964 130.633 58.5932 130.68 58.2622 130.68V131.68C58.6873 131.68 59.1385 131.619 59.6134 131.504L59.377 130.532ZM58.2622 130.68C57.4037 130.68 56.7948 130.454 56.3714 130.058L55.6891 130.79C56.3457 131.402 57.2248 131.68 58.2622 131.68V130.68ZM56.3734 130.06C55.9437 129.655 55.7292 129.155 55.7292 128.525H54.7292C54.7292 129.419 55.0488 130.185 55.687 130.788L56.3734 130.06ZM55.7292 128.525V122.486H54.7292V128.525H55.7292ZM55.2292 121.986H52.9972V122.986H55.2292V121.986ZM53.4972 122.486V121.55H52.4972V122.486H53.4972ZM52.9972 122.05H55.2292V121.05H52.9972V122.05ZM55.7292 121.55V119.372H54.7292V121.55H55.7292ZM55.2893 119.868L56.4053 119.733L56.2852 118.741L55.1692 118.876L55.2893 119.868ZM55.8452 119.237V121.55H56.8452V119.237H55.8452ZM56.3452 122.05H59.6752V121.05H56.3452V122.05ZM59.1818 121.469L59.0288 122.405L60.0157 122.567L60.1687 121.631L59.1818 121.469ZM59.5222 121.986H56.3452V122.986H59.5222V121.986ZM55.8452 122.486V128.498H56.8452V122.486H55.8452ZM55.8452 128.498C55.8452 129.134 56.0185 129.698 56.4291 130.117L57.1433 129.417C56.966 129.236 56.8452 128.954 56.8452 128.498H55.8452ZM56.4363 130.124C56.8756 130.555 57.5391 130.708 58.2892 130.708V129.708C57.6354 129.708 57.2968 129.567 57.1362 129.41L56.4363 130.124ZM58.2892 130.708C58.688 130.708 59.0661 130.661 59.4206 130.564L59.1559 129.6C58.8983 129.671 58.6104 129.708 58.2892 129.708V130.708ZM59.4206 130.564C59.7587 130.471 60.0773 130.348 60.3748 130.192L59.9116 129.306C59.6812 129.426 59.4297 129.525 59.1559 129.6L59.4206 130.564ZM59.7157 130.008L60.2017 130.809L61.0567 130.291L60.5707 129.49L59.7157 130.008ZM64.3032 131H63.8032V131.5H64.3032V131ZM64.3032 130.064V129.564H63.8032V130.064H64.3032ZM65.8422 130.064V130.564H66.3422V130.064H65.8422ZM65.8422 122.495H66.3422V121.995H65.8422V122.495ZM64.3032 122.495H63.8032V122.995H64.3032V122.495ZM64.3032 121.55V121.05H63.8032V121.55H64.3032ZM66.6972 121.55L67.1951 121.505L67.1536 121.05H66.6972V121.55ZM66.9042 123.818L66.4063 123.863L66.5698 125.655L67.3542 124.036L66.9042 123.818ZM68.2362 122.018L68.5572 122.401L68.5576 122.401L68.2362 122.018ZM70.9992 121.415L70.907 121.906L70.9097 121.907L70.9992 121.415ZM71.6202 121.55L72.0992 121.693L72.2492 121.192L71.7415 121.065L71.6202 121.55ZM71.3052 122.603L71.1678 123.084L71.6427 123.219L71.7842 122.746L71.3052 122.603ZM70.7472 122.477L70.6528 122.968L70.6633 122.97L70.6739 122.972L70.7472 122.477ZM68.2632 123.215L68.6106 123.575L68.6127 123.573L68.2632 123.215ZM66.9582 125.672L66.4792 125.529L66.4582 125.599V125.672H66.9582ZM66.9582 130.064H66.4582V130.564H66.9582V130.064ZM68.9022 130.064H69.4022V129.564H68.9022V130.064ZM68.9022 131V131.5H69.4022V131H68.9022ZM70.4142 124.52H69.9142V125.02H70.4142V124.52ZM70.4142 122.675L69.9152 122.643L69.9142 122.659V122.675H70.4142ZM70.4862 121.55V121.05H70.0172L69.9872 121.518L70.4862 121.55ZM71.6202 121.55L72.1197 121.571L72.1418 121.05H71.6202V121.55ZM71.4942 124.52V125.02H71.9734L71.9937 124.541L71.4942 124.52ZM64.8032 131V130.064H63.8032V131H64.8032ZM64.3032 130.564H65.8422V129.564H64.3032V130.564ZM66.3422 130.064V122.495H65.3422V130.064H66.3422ZM65.8422 121.995H64.3032V122.995H65.8422V121.995ZM64.8032 122.495V121.55H63.8032V122.495H64.8032ZM64.3032 122.05H66.6972V121.05H64.3032V122.05ZM66.1993 121.595L66.4063 123.863L67.4021 123.773L67.1951 121.505L66.1993 121.595ZM67.3542 124.036C67.7033 123.315 68.1078 122.778 68.5572 122.401L67.9152 121.635C67.3325 122.122 66.849 122.785 66.4542 123.6L67.3542 124.036ZM68.5576 122.401C68.9658 122.058 69.5425 121.861 70.3422 121.861V120.861C69.3779 120.861 68.5506 121.102 67.9148 121.635L68.5576 122.401ZM70.3422 121.861C70.5648 121.861 70.752 121.877 70.907 121.906L71.0913 120.924C70.8623 120.881 70.6116 120.861 70.3422 120.861V121.861ZM70.9097 121.907C71.096 121.941 71.2924 121.983 71.4989 122.035L71.7415 121.065C71.516 121.009 71.2984 120.961 71.0886 120.923L70.9097 121.907ZM71.1412 121.407L70.8262 122.46L71.7842 122.746L72.0992 121.693L71.1412 121.407ZM71.4425 122.122C71.218 122.058 71.0099 122.01 70.8205 121.982L70.6739 122.972C70.8085 122.992 70.9724 123.028 71.1678 123.084L71.4425 122.122ZM70.8416 121.986C70.6472 121.949 70.4344 121.932 70.2072 121.932V122.932C70.3879 122.932 70.5352 122.945 70.6528 122.968L70.8416 121.986ZM70.2072 121.932C69.3175 121.932 68.5432 122.242 67.9137 122.857L68.6127 123.573C69.0512 123.144 69.5728 122.932 70.2072 122.932V121.932ZM67.9157 122.855C67.2944 123.456 66.8269 124.367 66.4792 125.529L67.4372 125.815C67.7614 124.733 68.164 124.006 68.6106 123.575L67.9157 122.855ZM66.4582 125.672V130.064H67.4582V125.672H66.4582ZM66.9582 130.564H68.9022V129.564H66.9582V130.564ZM68.4022 130.064V131H69.4022V130.064H68.4022ZM68.9022 130.5H64.3032V131.5H68.9022V130.5ZM70.9142 124.52V122.675H69.9142V124.52H70.9142ZM70.9132 122.707L70.9852 121.582L69.9872 121.518L69.9152 122.643L70.9132 122.707ZM70.4862 122.05H71.6202V121.05H70.4862V122.05ZM71.1206 121.529L70.9946 124.499L71.9937 124.541L72.1197 121.571L71.1206 121.529ZM71.4942 124.02H70.4142V125.02H71.4942V124.02ZM81.6212 129.983L81.2179 130.279L81.2228 130.285L81.6212 129.983ZM82.2332 130.37L82.7015 130.545L82.8878 130.047L82.3787 129.892L82.2332 130.37ZM81.9272 131.189L81.853 131.683L82.2537 131.744L82.3955 131.364L81.9272 131.189ZM80.9642 130.793L81.2628 130.392L81.2628 130.392L80.9642 130.793ZM80.3702 129.83L80.8536 129.702L80.5907 128.706L79.9708 129.529L80.3702 129.83ZM79.1282 130.838L79.3384 131.292L79.3408 131.291L79.1282 130.838ZM75.2492 130.388L75.6007 130.032L75.6007 130.032L75.2492 130.388ZM75.5642 126.068L75.283 125.655L75.2815 125.656L75.5642 126.068ZM80.2622 125.303V125.803H80.7622V125.303H80.2622ZM79.6232 122.837L79.3325 123.244L79.3392 123.249L79.6232 122.837ZM76.8152 122.495L76.727 122.003L76.727 122.003L76.8152 122.495ZM75.4742 122.864L75.0027 123.03L75.1692 123.502L75.6409 123.335L75.4742 122.864ZM75.1502 121.946L74.9773 121.477L74.5145 121.647L74.6787 122.112L75.1502 121.946ZM76.6982 121.505L76.6098 121.013L76.6087 121.013L76.6982 121.505ZM80.5682 122.198L80.2204 122.557L80.2243 122.561L80.5682 122.198ZM79.1192 129.911L79.3635 130.347L79.3635 130.347L79.1192 129.911ZM80.2622 128.858L80.6731 129.143L80.7622 129.014V128.858H80.2622ZM80.2622 126.158H80.7622V125.658H80.2622V126.158ZM76.3472 126.752L76.6771 127.128L76.68 127.125L76.3472 126.752ZM76.1672 129.794L75.8072 130.141L75.8104 130.144L76.1672 129.794ZM80.9232 129.137C80.9232 129.559 80.992 129.971 81.218 130.279L82.0244 129.687C81.9863 129.635 81.9232 129.483 81.9232 129.137H80.9232ZM81.2228 130.285C81.4361 130.566 81.7429 130.743 82.0876 130.848L82.3787 129.892C82.1714 129.829 82.0703 129.748 82.0195 129.681L81.2228 130.285ZM81.7648 130.195L81.4588 131.014L82.3955 131.364L82.7015 130.545L81.7648 130.195ZM82.0013 130.695C81.7197 130.652 81.4764 130.551 81.2628 130.392L80.6655 131.194C81.0159 131.455 81.4146 131.618 81.853 131.683L82.0013 130.695ZM81.2628 130.392C81.0938 130.266 80.9467 130.055 80.8536 129.702L79.8867 129.958C80.0216 130.469 80.2706 130.9 80.6655 131.194L81.2628 130.392ZM79.9708 129.529C79.69 129.902 79.3401 130.186 78.9155 130.385L79.3408 131.291C79.9122 131.022 80.3904 130.634 80.7695 130.131L79.9708 129.529ZM78.9179 130.384C78.501 130.578 78.0165 130.68 77.4542 130.68V131.68C78.1399 131.68 78.7713 131.554 79.3384 131.292L78.9179 130.384ZM77.4542 130.68C76.6156 130.68 76.0193 130.446 75.6007 130.032L74.8976 130.744C75.547 131.386 76.4208 131.68 77.4542 131.68V130.68ZM75.6007 130.032C75.1782 129.615 74.9482 129.047 74.9482 128.273H73.9482C73.9482 129.263 74.2521 130.105 74.8976 130.744L75.6007 130.032ZM74.9482 128.273C74.9482 127.465 75.2489 126.89 75.8469 126.48L75.2815 125.656C74.3914 126.266 73.9482 127.161 73.9482 128.273H74.9482ZM75.8453 126.481C76.4773 126.052 77.4503 125.803 78.8312 125.803V124.803C77.356 124.803 76.151 125.064 75.283 125.655L75.8453 126.481ZM78.8312 125.803H80.2622V124.803H78.8312V125.803ZM80.7622 125.303V124.385H79.7622V125.303H80.7622ZM80.7622 124.385C80.7622 123.558 80.5203 122.849 79.9072 122.425L79.3392 123.249C79.578 123.413 79.7622 123.736 79.7622 124.385H80.7622ZM79.9138 122.43C79.3802 122.049 78.6893 121.887 77.8952 121.887V122.887C78.565 122.887 79.0261 123.025 79.3325 123.244L79.9138 122.43ZM77.8952 121.887C77.5407 121.887 77.1504 121.927 76.727 122.003L76.9033 122.987C77.2839 122.919 77.6137 122.887 77.8952 122.887V121.887ZM76.727 122.003C76.2922 122.081 75.8184 122.212 75.3074 122.393L75.6409 123.335C76.1139 123.168 76.5342 123.053 76.9033 122.987L76.727 122.003ZM75.9457 122.698L75.6217 121.78L74.6787 122.112L75.0027 123.03L75.9457 122.698ZM75.323 122.415C75.8733 122.212 76.3609 122.075 76.7876 121.997L76.6087 121.013C76.1115 121.103 75.567 121.26 74.9773 121.477L75.323 122.415ZM76.7865 121.997C77.2278 121.918 77.6512 121.879 78.0572 121.879V120.879C77.5871 120.879 77.1045 120.924 76.6098 121.013L76.7865 121.997ZM78.0572 121.879C79.0914 121.879 79.7824 122.133 80.2204 122.557L80.9159 121.839C80.226 121.171 79.2429 120.879 78.0572 120.879V121.879ZM80.2243 122.561C80.6804 122.993 80.9232 123.571 80.9232 124.349H81.9232C81.9232 123.339 81.5959 122.483 80.912 121.835L80.2243 122.561ZM80.9232 124.349V129.137H81.9232V124.349H80.9232ZM77.6702 130.789C78.2717 130.789 78.8388 130.641 79.3635 130.347L78.8749 129.475C78.4995 129.685 78.1007 129.789 77.6702 129.789V130.789ZM79.3635 130.347C79.8838 130.056 80.3205 129.651 80.6731 129.143L79.8513 128.573C79.5798 128.965 79.2545 129.262 78.8749 129.475L79.3635 130.347ZM80.7622 128.858V126.158H79.7622V128.858H80.7622ZM80.2622 125.658H78.6962V126.658H80.2622V125.658ZM78.6962 125.658C77.547 125.658 76.6024 125.854 76.0143 126.379L76.68 127.125C76.9799 126.858 77.6013 126.658 78.6962 126.658V125.658ZM76.0172 126.376C75.4539 126.871 75.1812 127.533 75.1812 128.309H76.1812C76.1812 127.789 76.3524 127.413 76.6771 127.128L76.0172 126.376ZM75.1812 128.309C75.1812 129.04 75.3626 129.68 75.8072 130.141L76.5271 129.447C76.3237 129.236 76.1812 128.886 76.1812 128.309H75.1812ZM75.8104 130.144C76.2647 130.607 76.9205 130.789 77.6702 130.789V129.789C77.0638 129.789 76.7177 129.641 76.5239 129.444L75.8104 130.144ZM85.7991 131H85.2991V131.5H85.7991V131ZM85.7991 121.55V121.05H85.2991V121.55H85.7991ZM86.7351 121.55L87.2341 121.517L87.2035 121.05H86.7351V121.55ZM86.8251 122.927L86.3262 122.96L86.4138 124.3L87.224 123.229L86.8251 122.927ZM88.2921 121.784L88.0903 121.327L88.0886 121.327L88.2921 121.784ZM92.0631 122.117L91.6782 122.436L91.6805 122.439L92.0631 122.117ZM92.6841 131V131.5H93.1841V131H92.6841ZM91.5681 131H91.0681V131.5H91.5681V131ZM91.4511 123.602L91.9438 123.517L91.9438 123.517L91.4511 123.602ZM90.9471 122.621L90.6315 123.009L90.637 123.013L90.9471 122.621ZM88.5441 122.585L88.7648 123.034L88.7677 123.032L88.5441 122.585ZM87.5721 123.26L87.9177 123.621L87.9179 123.621L87.5721 123.26ZM86.9151 124.034L86.4945 123.764L86.4151 123.887V124.034H86.9151ZM86.9151 131V131.5H87.4151V131H86.9151ZM86.2991 131V121.55H85.2991V131H86.2991ZM85.7991 122.05H86.7351V121.05H85.7991V122.05ZM86.2362 121.583L86.3262 122.96L87.3241 122.894L87.2341 121.517L86.2362 121.583ZM87.224 123.229C87.5412 122.809 87.9608 122.479 88.4956 122.241L88.0886 121.327C87.4115 121.629 86.8531 122.061 86.4263 122.625L87.224 123.229ZM88.4939 122.241C89.0587 121.992 89.5595 121.879 90.0021 121.879V120.879C89.3887 120.879 88.7495 121.036 88.0903 121.327L88.4939 122.241ZM90.0021 121.879C90.8966 121.879 91.4055 122.107 91.6782 122.436L92.448 121.798C91.9048 121.143 91.0397 120.879 90.0021 120.879V121.879ZM91.6805 122.439C91.9956 122.813 92.1841 123.366 92.1841 124.16H93.1841C93.1841 123.214 92.9586 122.405 92.4457 121.795L91.6805 122.439ZM92.1841 124.16V131H93.1841V124.16H92.1841ZM92.6841 130.5H91.5681V131.5H92.6841V130.5ZM92.0681 131V125.357H91.0681V131H92.0681ZM92.0681 125.357C92.0681 124.623 92.0286 124.006 91.9438 123.517L90.9585 123.687C91.0296 124.098 91.0681 124.651 91.0681 125.357H92.0681ZM91.9438 123.517C91.8529 122.993 91.6437 122.534 91.2572 122.229L90.637 123.013C90.7666 123.116 90.8933 123.311 90.9585 123.687L91.9438 123.517ZM91.2628 122.233C90.8734 121.916 90.3293 121.806 89.7321 121.806V122.806C90.239 122.806 90.5049 122.906 90.6315 123.009L91.2628 122.233ZM89.7321 121.806C89.2353 121.806 88.7627 121.917 88.3205 122.138L88.7677 123.032C89.0696 122.881 89.389 122.806 89.7321 122.806V121.806ZM88.3235 122.136C87.9136 122.338 87.5469 122.592 87.2263 122.899L87.9179 123.621C88.1613 123.388 88.4427 123.192 88.7648 123.034L88.3235 122.136ZM87.2265 122.899C86.9294 123.183 86.6827 123.471 86.4945 123.764L87.3357 124.304C87.4715 124.093 87.6628 123.865 87.9177 123.621L87.2265 122.899ZM86.4151 124.034V131H87.4151V124.034H86.4151ZM86.9151 130.5H85.7991V131.5H86.9151V130.5ZM101.524 129.704L101.803 130.119L101.804 130.118L101.524 129.704ZM102.064 127.67L101.602 127.86L101.604 127.867L101.608 127.874L102.064 127.67ZM101.425 127.049L101.176 127.483L101.186 127.488L101.425 127.049ZM99.9221 126.527L99.8018 127.012L99.8059 127.013L99.9221 126.527ZM98.1581 125.969L97.9666 126.431L97.9686 126.432L98.1581 125.969ZM97.0151 125.168L96.6281 125.485L96.6281 125.485L97.0151 125.168ZM97.0511 122.522L96.6619 122.208L96.6613 122.209L97.0511 122.522ZM98.2751 121.676L98.4495 122.145L98.4524 122.143L98.2751 121.676ZM101.965 121.676L101.795 122.146L101.796 122.147L101.965 121.676ZM103.351 122.396L103.774 122.663L104.019 122.275L103.653 121.998L103.351 122.396ZM102.829 123.224L102.54 123.632L102.971 123.937L103.252 123.491L102.829 123.224ZM101.668 122.612L101.846 122.145L101.846 122.145L101.668 122.612ZM98.2931 122.765L98.602 123.158L98.602 123.158L98.2931 122.765ZM98.0321 124.538L97.6405 124.849L97.6456 124.855L97.6508 124.861L98.0321 124.538ZM98.8511 125.069L98.6603 125.531L98.6667 125.534L98.8511 125.069ZM100.381 125.555L100.25 126.038L100.254 126.039L100.381 125.555ZM102.001 126.14L102.222 125.692L102.222 125.692L102.001 126.14ZM103.081 127.031L103.49 126.743L103.49 126.743L103.081 127.031ZM102.901 130.055L102.537 129.712L102.537 129.713L102.901 130.055ZM101.461 130.919L101.603 131.398L101.607 131.397L101.461 130.919ZM97.5101 130.811L97.312 131.27L97.3137 131.271L97.5101 130.811ZM96.0881 129.947L95.7064 129.624L95.3884 130L95.7593 130.324L96.0881 129.947ZM96.7811 129.128L97.1024 128.745L96.721 128.425L96.3994 128.805L96.7811 129.128ZM98.0681 129.884L97.8844 130.349L97.8894 130.351L98.0681 129.884ZM99.6341 130.663C100.494 130.663 101.234 130.501 101.803 130.119L101.245 129.289C100.902 129.519 100.383 129.663 99.6341 129.663V130.663ZM101.804 130.118C102.386 129.725 102.717 129.17 102.717 128.48H101.717C101.717 128.798 101.586 129.059 101.244 129.29L101.804 130.118ZM102.717 128.48C102.717 128.115 102.657 127.772 102.521 127.466L101.608 127.874C101.675 128.024 101.717 128.221 101.717 128.48H102.717ZM102.527 127.48C102.37 127.099 102.048 126.819 101.665 126.61L101.186 127.488C101.462 127.639 101.566 127.773 101.602 127.86L102.527 127.48ZM101.674 126.615C101.287 126.393 100.73 126.206 100.038 126.041L99.8059 127.013C100.47 127.172 100.915 127.333 101.176 127.483L101.674 126.615ZM100.042 126.042C99.3814 125.878 98.8176 125.699 98.3476 125.506L97.9686 126.432C98.4946 126.647 99.1068 126.84 99.8018 127.012L100.042 126.042ZM98.3496 125.507C97.9151 125.327 97.6085 125.104 97.4021 124.851L96.6281 125.485C96.9617 125.892 97.4171 126.203 97.9666 126.431L98.3496 125.507ZM97.4021 124.851C97.2236 124.633 97.1101 124.318 97.1101 123.854H96.1101C96.1101 124.482 96.2666 125.043 96.6281 125.485L97.4021 124.851ZM97.1101 123.854C97.1101 123.432 97.2263 123.102 97.4409 122.835L96.6613 122.209C96.2879 122.674 96.1101 123.232 96.1101 123.854H97.1101ZM97.4403 122.836C97.6758 122.544 98.0047 122.31 98.4495 122.145L98.1007 121.207C97.5135 121.426 97.0264 121.756 96.6619 122.208L97.4403 122.836ZM98.4524 122.143C98.909 121.97 99.4355 121.879 100.039 121.879V120.879C99.3347 120.879 98.6852 120.986 98.0978 121.209L98.4524 122.143ZM100.039 121.879C100.734 121.879 101.316 121.972 101.795 122.146L102.136 121.206C101.522 120.984 100.82 120.879 100.039 120.879V121.879ZM101.796 122.147C102.312 122.332 102.726 122.55 103.049 122.794L103.653 121.998C103.232 121.678 102.722 121.416 102.134 121.205L101.796 122.147ZM102.928 122.129L102.406 122.957L103.252 123.491L103.774 122.663L102.928 122.129ZM103.118 122.816C102.733 122.544 102.308 122.321 101.846 122.145L101.49 123.079C101.88 123.227 102.229 123.412 102.54 123.632L103.118 122.816ZM101.846 122.145C101.344 121.954 100.739 121.869 100.048 121.869V122.869C100.666 122.869 101.14 122.946 101.49 123.079L101.846 122.145ZM100.048 121.869C99.1928 121.869 98.4599 121.998 97.9842 122.372L98.602 123.158C98.7983 123.004 99.2354 122.869 100.048 122.869V121.869ZM97.9842 122.372C97.5363 122.724 97.2891 123.198 97.2891 123.764H98.2891C98.2891 123.526 98.3779 123.334 98.602 123.158L97.9842 122.372ZM97.2891 123.764C97.2891 124.166 97.3952 124.54 97.6405 124.849L98.4236 124.227C98.345 124.128 98.2891 123.986 98.2891 123.764H97.2891ZM97.6508 124.861C97.8917 125.145 98.2468 125.361 98.6604 125.531L99.0418 124.607C98.6994 124.465 98.5085 124.327 98.4133 124.215L97.6508 124.861ZM98.6667 125.534C99.0696 125.694 99.6 125.861 100.25 126.038L100.512 125.072C99.8782 124.901 99.3885 124.744 99.0355 124.604L98.6667 125.534ZM100.254 126.039C100.847 126.194 101.354 126.378 101.78 126.588L102.222 125.692C101.724 125.446 101.151 125.24 100.508 125.071L100.254 126.039ZM101.78 126.588C102.178 126.785 102.469 127.031 102.672 127.319L103.49 126.743C103.177 126.299 102.748 125.951 102.222 125.692L101.78 126.588ZM102.672 127.319C102.855 127.579 102.968 127.943 102.968 128.453H103.968C103.968 127.799 103.823 127.215 103.49 126.743L102.672 127.319ZM102.968 128.453C102.968 129.02 102.81 129.422 102.537 129.712L103.265 130.398C103.748 129.884 103.968 129.218 103.968 128.453H102.968ZM102.537 129.713C102.232 130.037 101.831 130.283 101.315 130.441L101.607 131.397C102.268 131.195 102.826 130.865 103.266 130.397L102.537 129.713ZM101.319 130.44C100.779 130.599 100.215 130.68 99.6251 130.68V131.68C100.307 131.68 100.967 131.587 101.603 131.398L101.319 130.44ZM99.6251 130.68C98.8374 130.68 98.2035 130.563 97.7065 130.351L97.3137 131.271C97.9687 131.551 98.7448 131.68 99.6251 131.68V130.68ZM97.7082 130.352C97.175 130.122 96.7479 129.859 96.4169 129.57L95.7593 130.324C96.1843 130.695 96.7052 131.008 97.312 131.27L97.7082 130.352ZM96.4698 130.27L97.1628 129.451L96.3994 128.805L95.7064 129.624L96.4698 130.27ZM96.4598 129.511C96.876 129.86 97.3522 130.139 97.8844 130.349L98.2518 129.419C97.812 129.245 97.4302 129.02 97.1024 128.745L96.4598 129.511ZM97.8894 130.351C98.4364 130.56 99.0195 130.663 99.6341 130.663V129.663C99.1327 129.663 98.6717 129.58 98.2468 129.417L97.8894 130.351ZM112.83 129.92L112.66 129.45L112.658 129.45L112.83 129.92ZM114 129.317L114.395 129.011L114.102 128.632L113.711 128.909L114 129.317ZM114.585 130.073L114.907 130.456L115.274 130.147L114.98 129.767L114.585 130.073ZM113.1 130.892L113.258 131.366L113.263 131.365L113.1 130.892ZM109.14 130.586L108.873 131.009L108.878 131.012L109.14 130.586ZM107.682 128.885L107.226 129.09L107.228 129.094L107.682 128.885ZM107.682 123.791L107.226 123.585L107.225 123.588L107.682 123.791ZM109.14 122.027L108.861 121.612L108.859 121.613L109.14 122.027ZM113.118 121.649L112.953 122.121L112.955 122.122L113.118 121.649ZM114.558 122.45L114.96 122.748L115.245 122.363L114.872 122.061L114.558 122.45ZM113.964 123.251L113.68 123.663L114.078 123.937L114.366 123.549L113.964 123.251ZM112.695 122.594L112.525 123.064L112.533 123.067L112.695 122.594ZM109.275 123.359L108.897 123.032L108.895 123.034L109.275 123.359ZM108.816 128.489L108.361 128.695L108.361 128.697L108.816 128.489ZM109.878 129.749L109.617 130.175L109.623 130.179L109.878 129.749ZM111.435 130.654C111.991 130.654 112.515 130.568 113.002 130.39L112.658 129.45C112.293 129.584 111.887 129.654 111.435 129.654V130.654ZM113 130.39C113.471 130.22 113.901 129.999 114.289 129.725L113.711 128.909C113.403 129.127 113.053 129.308 112.66 129.45L113 130.39ZM113.605 129.623L114.19 130.379L114.98 129.767L114.395 129.011L113.605 129.623ZM114.263 129.69C113.902 129.994 113.463 130.239 112.938 130.419L113.263 131.365C113.889 131.149 114.44 130.848 114.907 130.456L114.263 129.69ZM112.942 130.418C112.407 130.596 111.921 130.68 111.48 130.68V131.68C112.048 131.68 112.641 131.572 113.258 131.366L112.942 130.418ZM111.48 130.68C110.635 130.68 109.95 130.498 109.403 130.16L108.878 131.012C109.614 131.466 110.49 131.68 111.48 131.68V130.68ZM109.407 130.163C108.859 129.817 108.435 129.327 108.136 128.676L107.228 129.094C107.601 129.907 108.149 130.551 108.873 131.009L109.407 130.163ZM108.138 128.68C107.843 128.025 107.687 127.24 107.687 126.311H106.687C106.687 127.35 106.861 128.281 107.226 129.09L108.138 128.68ZM107.687 126.311C107.687 125.434 107.841 124.665 108.139 123.994L107.225 123.588C106.863 124.405 106.687 125.316 106.687 126.311H107.687ZM108.138 123.997C108.438 123.331 108.866 122.818 109.421 122.441L108.859 121.613C108.142 122.1 107.598 122.763 107.226 123.585L108.138 123.997ZM109.419 122.442C109.964 122.075 110.645 121.879 111.489 121.879V120.879C110.485 120.879 109.6 121.115 108.861 121.612L109.419 122.442ZM111.489 121.879C112.005 121.879 112.493 121.96 112.953 122.121L113.283 121.177C112.712 120.978 112.113 120.879 111.489 120.879V121.879ZM112.955 122.122C113.421 122.282 113.85 122.521 114.244 122.839L114.872 122.061C114.39 121.671 113.859 121.376 113.281 121.176L112.955 122.122ZM114.156 122.152L113.562 122.953L114.366 123.549L114.96 122.748L114.156 122.152ZM114.248 122.839C113.791 122.524 113.327 122.282 112.857 122.121L112.533 123.067C112.903 123.194 113.286 123.39 113.68 123.663L114.248 122.839ZM112.865 122.124C112.399 121.955 111.921 121.869 111.435 121.869V122.869C111.801 122.869 112.163 122.933 112.525 123.064L112.865 122.124ZM111.435 121.869C110.419 121.869 109.561 122.263 108.897 123.032L109.653 123.686C110.129 123.135 110.711 122.869 111.435 122.869V121.869ZM108.895 123.034C108.223 123.821 107.929 124.942 107.929 126.311H108.929C108.929 125.064 109.199 124.217 109.655 123.684L108.895 123.034ZM107.929 126.311C107.929 127.237 108.064 128.04 108.361 128.695L109.272 128.283C109.052 127.798 108.929 127.149 108.929 126.311H107.929ZM108.361 128.697C108.653 129.335 109.068 129.839 109.617 130.175L110.139 129.323C109.788 129.107 109.495 128.771 109.271 128.281L108.361 128.697ZM109.623 130.179C110.164 130.499 110.772 130.654 111.435 130.654V129.654C110.934 129.654 110.504 129.539 110.133 129.319L109.623 130.179ZM118.268 131H117.768V131.5H118.268V131ZM118.268 130.064V129.564H117.768V130.064H118.268ZM119.807 130.064V130.564H120.307V130.064H119.807ZM119.807 122.495H120.307V121.995H119.807V122.495ZM118.268 122.495H117.768V122.995H118.268V122.495ZM118.268 121.55V121.05H117.768V121.55H118.268ZM120.662 121.55L121.16 121.505L121.118 121.05H120.662V121.55ZM120.869 123.818L120.371 123.863L120.535 125.655L121.319 124.036L120.869 123.818ZM122.201 122.018L122.522 122.401L122.522 122.401L122.201 122.018ZM124.964 121.415L124.872 121.906L124.875 121.907L124.964 121.415ZM125.585 121.55L126.064 121.693L126.214 121.192L125.706 121.065L125.585 121.55ZM125.27 122.603L125.133 123.084L125.608 123.219L125.749 122.746L125.27 122.603ZM124.712 122.477L124.618 122.968L124.628 122.97L124.639 122.972L124.712 122.477ZM122.228 123.215L122.575 123.575L122.578 123.573L122.228 123.215ZM120.923 125.672L120.444 125.529L120.423 125.599V125.672H120.923ZM120.923 130.064H120.423V130.564H120.923V130.064ZM122.867 130.064H123.367V129.564H122.867V130.064ZM122.867 131V131.5H123.367V131H122.867ZM124.379 124.52H123.879V125.02H124.379V124.52ZM124.379 122.675L123.88 122.643L123.879 122.659V122.675H124.379ZM124.451 121.55V121.05H123.982L123.952 121.518L124.451 121.55ZM125.585 121.55L126.085 121.571L126.107 121.05H125.585V121.55ZM125.459 124.52V125.02H125.938L125.959 124.541L125.459 124.52ZM118.768 131V130.064H117.768V131H118.768ZM118.268 130.564H119.807V129.564H118.268V130.564ZM120.307 130.064V122.495H119.307V130.064H120.307ZM119.807 121.995H118.268V122.995H119.807V121.995ZM118.768 122.495V121.55H117.768V122.495H118.768ZM118.268 122.05H120.662V121.05H118.268V122.05ZM120.164 121.595L120.371 123.863L121.367 123.773L121.16 121.505L120.164 121.595ZM121.319 124.036C121.668 123.315 122.073 122.778 122.522 122.401L121.88 121.635C121.297 122.122 120.814 122.785 120.419 123.6L121.319 124.036ZM122.522 122.401C122.931 122.058 123.507 121.861 124.307 121.861V120.861C123.343 120.861 122.515 121.102 121.88 121.635L122.522 122.401ZM124.307 121.861C124.53 121.861 124.717 121.877 124.872 121.906L125.056 120.924C124.827 120.881 124.576 120.861 124.307 120.861V121.861ZM124.875 121.907C125.061 121.941 125.257 121.983 125.464 122.035L125.706 121.065C125.481 121.009 125.263 120.961 125.053 120.923L124.875 121.907ZM125.106 121.407L124.791 122.46L125.749 122.746L126.064 121.693L125.106 121.407ZM125.407 122.122C125.183 122.058 124.975 122.01 124.785 121.982L124.639 122.972C124.773 122.992 124.937 123.028 125.133 123.084L125.407 122.122ZM124.806 121.986C124.612 121.949 124.399 121.932 124.172 121.932V122.932C124.353 122.932 124.5 122.945 124.618 122.968L124.806 121.986ZM124.172 121.932C123.282 121.932 122.508 122.242 121.879 122.857L122.578 123.573C123.016 123.144 123.538 122.932 124.172 122.932V121.932ZM121.881 122.855C121.259 123.456 120.792 124.367 120.444 125.529L121.402 125.815C121.726 124.733 122.129 124.006 122.575 123.575L121.881 122.855ZM120.423 125.672V130.064H121.423V125.672H120.423ZM120.923 130.564H122.867V129.564H120.923V130.564ZM122.367 130.064V131H123.367V130.064H122.367ZM122.867 130.5H118.268V131.5H122.867V130.5ZM124.879 124.52V122.675H123.879V124.52H124.879ZM124.878 122.707L124.95 121.582L123.952 121.518L123.88 122.643L124.878 122.707ZM124.451 122.05H125.585V121.05H124.451V122.05ZM125.085 121.529L124.959 124.499L125.959 124.541L126.085 121.571L125.085 121.529ZM125.459 124.02H124.379V125.02H125.459V124.02ZM133.462 121.55H133.962V121.05H133.462V121.55ZM133.462 130.028H132.962V130.528H133.462V130.028ZM136.207 130.028H136.707V129.528H136.207V130.028ZM136.207 131V131.5H136.707V131H136.207ZM129.358 131H128.858V131.5H129.358V131ZM129.358 130.028V129.528H128.858V130.028H129.358ZM132.346 130.028V130.528H132.846V130.028H132.346ZM132.346 122.522H132.846V122.022H132.346V122.522ZM129.448 122.522H128.948V123.022H129.448V122.522ZM129.448 121.55V121.05H128.948V121.55H129.448ZM133.093 117.536L132.733 117.883L132.733 117.883L133.093 117.536ZM133.093 118.832L133.453 119.179L133.459 119.173L133.093 118.832ZM131.752 118.832L131.386 119.173L131.392 119.179L131.752 118.832ZM131.752 117.536L132.112 117.883L132.112 117.883L131.752 117.536ZM132.962 121.55V130.028H133.962V121.55H132.962ZM133.462 130.528H136.207V129.528H133.462V130.528ZM135.707 130.028V131H136.707V130.028H135.707ZM136.207 130.5H129.358V131.5H136.207V130.5ZM129.858 131V130.028H128.858V131H129.858ZM129.358 130.528H132.346V129.528H129.358V130.528ZM132.846 130.028V122.522H131.846V130.028H132.846ZM132.346 122.022H129.448V123.022H132.346V122.022ZM129.948 122.522V121.55H128.948V122.522H129.948ZM129.448 122.05H133.462V121.05H129.448V122.05ZM132.409 117.775C132.589 117.775 132.677 117.825 132.733 117.883L133.453 117.189C133.173 116.899 132.805 116.775 132.409 116.775V117.775ZM132.733 117.883C132.81 117.962 132.845 118.047 132.845 118.166H133.845C133.845 117.793 133.712 117.458 133.453 117.189L132.733 117.883ZM132.845 118.166C132.845 118.313 132.802 118.41 132.727 118.491L133.459 119.173C133.72 118.894 133.845 118.547 133.845 118.166H132.845ZM132.733 118.485C132.677 118.543 132.589 118.593 132.409 118.593V119.593C132.805 119.593 133.173 119.469 133.453 119.179L132.733 118.485ZM132.409 118.593C132.257 118.593 132.174 118.549 132.112 118.485L131.392 119.179C131.666 119.463 132.021 119.593 132.409 119.593V118.593ZM132.118 118.491C132.043 118.41 132 118.313 132 118.166H131C131 118.547 131.125 118.894 131.386 119.173L132.118 118.491ZM132 118.166C132 118.047 132.035 117.962 132.112 117.883L131.392 117.189C131.133 117.458 131 117.793 131 118.166H132ZM132.112 117.883C132.174 117.819 132.257 117.775 132.409 117.775V116.775C132.021 116.775 131.666 116.905 131.392 117.189L132.112 117.883ZM140.88 122.855H140.38V124.34L141.278 123.157L140.88 122.855ZM142.113 121.766L142.352 122.205L142.354 122.204L142.113 121.766ZM145.722 121.991L146.03 121.597L146.03 121.597L145.722 121.991ZM146.856 123.71L146.379 123.861L146.381 123.866L146.856 123.71ZM146.784 128.804L146.318 128.622L146.317 128.626L146.784 128.804ZM145.533 130.55L145.836 130.948L145.838 130.946L145.533 130.55ZM140.844 129.983L141.235 129.671L140.475 128.718L140.347 129.93L140.844 129.983ZM140.736 131V131.5H141.186L141.233 131.053L140.736 131ZM139.764 131H139.264V131.5H139.764V131ZM139.764 117.725L139.696 117.23L139.264 117.289V117.725H139.764ZM140.88 117.572H141.38V116.999L140.812 117.077L140.88 117.572ZM145.254 129.227L144.846 128.938L144.846 128.939L145.254 129.227ZM145.677 124.124L145.199 124.272L145.201 124.276L145.677 124.124ZM144.858 122.792L144.534 123.173L144.537 123.176L144.858 122.792ZM141.951 122.864L142.259 123.258L142.263 123.255L141.951 122.864ZM140.88 123.98L140.467 123.698L140.38 123.826V123.98H140.88ZM140.88 128.876H140.38V129.028L140.465 129.155L140.88 128.876ZM141.906 129.848L141.651 130.278L141.658 130.282L141.906 129.848ZM141.278 123.157C141.601 122.732 141.96 122.419 142.352 122.205L141.874 121.327C141.342 121.617 140.879 122.03 140.482 122.553L141.278 123.157ZM142.354 122.204C142.744 121.989 143.177 121.879 143.661 121.879V120.879C143.017 120.879 142.418 121.027 141.872 121.328L142.354 122.204ZM143.661 121.879C144.434 121.879 145.002 122.063 145.414 122.385L146.03 121.597C145.398 121.103 144.592 120.879 143.661 120.879V121.879ZM145.414 122.385C145.844 122.721 146.171 123.203 146.379 123.861L147.333 123.559C147.073 122.741 146.644 122.077 146.03 121.597L145.414 122.385ZM146.381 123.866C146.601 124.536 146.716 125.336 146.716 126.275H147.716C147.716 125.258 147.591 124.348 147.331 123.554L146.381 123.866ZM146.716 126.275C146.716 127.173 146.58 127.952 146.318 128.622L147.25 128.986C147.564 128.18 147.716 127.273 147.716 126.275H146.716ZM146.317 128.626C146.063 129.289 145.697 129.792 145.227 130.154L145.838 130.946C146.473 130.456 146.941 129.795 147.251 128.982L146.317 128.626ZM145.23 130.152C144.779 130.495 144.21 130.68 143.49 130.68V131.68C144.39 131.68 145.183 131.445 145.836 130.948L145.23 130.152ZM143.49 130.68C142.496 130.68 141.765 130.337 141.235 129.671L140.453 130.295C141.195 131.225 142.228 131.68 143.49 131.68V130.68ZM140.347 129.93L140.239 130.947L141.233 131.053L141.341 130.036L140.347 129.93ZM140.736 130.5H139.764V131.5H140.736V130.5ZM140.264 131V117.725H139.264V131H140.264ZM139.832 118.22L140.948 118.067L140.812 117.077L139.696 117.23L139.832 118.22ZM140.38 117.572V122.855H141.38V117.572H140.38ZM143.247 130.708C144.268 130.708 145.097 130.316 145.662 129.515L144.846 128.939C144.487 129.446 143.978 129.708 143.247 129.708V130.708ZM145.662 129.516C146.217 128.733 146.456 127.621 146.456 126.257H145.456C145.456 127.533 145.227 128.401 144.846 128.938L145.662 129.516ZM146.456 126.257C146.456 125.383 146.36 124.618 146.153 123.972L145.201 124.276C145.366 124.794 145.456 125.451 145.456 126.257H146.456ZM146.155 123.976C145.954 123.327 145.637 122.791 145.179 122.408L144.537 123.176C144.811 123.405 145.04 123.757 145.199 124.272L146.155 123.976ZM145.182 122.411C144.718 122.016 144.144 121.833 143.499 121.833V122.833C143.946 122.833 144.278 122.956 144.534 123.173L145.182 122.411ZM143.499 121.833C142.802 121.833 142.175 122.046 141.639 122.473L142.263 123.255C142.615 122.974 143.02 122.833 143.499 122.833V121.833ZM141.643 122.47C141.165 122.845 140.77 123.253 140.467 123.698L141.293 124.262C141.53 123.915 141.849 123.579 142.259 123.258L141.643 122.47ZM140.38 123.98V128.876H141.38V123.98H140.38ZM140.465 129.155C140.776 129.618 141.172 129.994 141.651 130.278L142.161 129.418C141.812 129.21 141.524 128.938 141.295 128.597L140.465 129.155ZM141.658 130.282C142.152 130.564 142.684 130.708 143.247 130.708V129.708C142.862 129.708 142.5 129.612 142.154 129.414L141.658 130.282ZM151.367 126.725V126.225H150.855L150.867 126.736L151.367 126.725ZM151.79 128.678L151.346 128.908L151.349 128.914L151.79 128.678ZM152.852 129.794L152.612 130.232L152.612 130.232L152.852 129.794ZM155.606 129.938L155.433 129.469L155.43 129.47L155.606 129.938ZM156.83 129.281L157.24 128.995L156.955 128.587L156.546 128.869L156.83 129.281ZM157.415 130.118L157.719 130.515L158.099 130.224L157.825 129.832L157.415 130.118ZM155.93 130.901L155.77 130.427L155.769 130.428L155.93 130.901ZM152.087 130.568L151.811 130.985L151.813 130.986L152.087 130.568ZM150.665 128.858L150.208 129.062L150.209 129.063L150.665 128.858ZM150.674 123.737L150.219 123.53L150.219 123.53L150.674 123.737ZM152.069 122.009L152.355 122.419L152.356 122.419L152.069 122.009ZM156.128 121.937L156.409 121.524L156.409 121.524L156.128 121.937ZM157.379 123.521L156.918 123.715L156.92 123.72L157.379 123.521ZM157.811 126.392L158.31 126.416L158.31 126.415L157.811 126.392ZM157.793 126.725V127.225H158.263L158.292 126.756L157.793 126.725ZM152.258 123.233L151.898 122.885L151.896 122.888L152.258 123.233ZM151.385 125.717L150.886 125.687L150.854 126.217H151.385V125.717ZM156.758 125.717V126.217H157.269L157.258 125.706L156.758 125.717ZM156.011 123.242L155.633 123.57L155.635 123.572L156.011 123.242ZM150.867 126.736C150.886 127.577 151.036 128.31 151.346 128.908L152.234 128.448C152.016 128.026 151.884 127.457 151.867 126.714L150.867 126.736ZM151.349 128.914C151.658 129.491 152.077 129.939 152.612 130.232L153.092 129.356C152.751 129.169 152.462 128.873 152.231 128.442L151.349 128.914ZM152.612 130.232C153.126 130.514 153.686 130.654 154.283 130.654V129.654C153.848 129.654 153.454 129.554 153.092 129.356L152.612 130.232ZM154.283 130.654C154.828 130.654 155.331 130.575 155.781 130.406L155.43 129.47C155.113 129.589 154.733 129.654 154.283 129.654V130.654ZM155.779 130.407C156.217 130.246 156.662 130.005 157.114 129.693L156.546 128.869C156.146 129.145 155.775 129.342 155.433 129.469L155.779 130.407ZM156.42 129.567L157.005 130.404L157.825 129.832L157.24 128.995L156.42 129.567ZM157.111 129.721C156.719 130.022 156.273 130.258 155.77 130.427L156.09 131.375C156.691 131.172 157.235 130.886 157.719 130.515L157.111 129.721ZM155.769 130.428C155.269 130.598 154.79 130.68 154.328 130.68V131.68C154.91 131.68 155.499 131.576 156.091 131.374L155.769 130.428ZM154.328 130.68C153.539 130.68 152.89 130.496 152.361 130.15L151.813 130.986C152.532 131.456 153.377 131.68 154.328 131.68V130.68ZM152.362 130.151C151.83 129.799 151.415 129.306 151.121 128.653L150.209 129.063C150.575 129.874 151.108 130.521 151.811 130.985L152.362 130.151ZM151.121 128.654C150.825 127.992 150.67 127.206 150.67 126.284H149.67C149.67 127.318 149.844 128.248 150.208 129.062L151.121 128.654ZM150.67 126.284C150.67 125.382 150.828 124.606 151.129 123.944L150.219 123.53C149.848 124.344 149.67 125.266 149.67 126.284H150.67ZM151.129 123.944C151.432 123.278 151.843 122.776 152.355 122.419L151.783 121.599C151.107 122.07 150.587 122.72 150.219 123.53L151.129 123.944ZM152.356 122.419C152.865 122.062 153.459 121.879 154.157 121.879V120.879C153.271 120.879 152.473 121.116 151.782 121.599L152.356 122.419ZM154.157 121.879C154.841 121.879 155.396 122.044 155.846 122.35L156.409 121.524C155.768 121.086 155.009 120.879 154.157 120.879V121.879ZM155.846 122.35C156.303 122.661 156.663 123.109 156.918 123.715L157.84 123.327C157.519 122.565 157.045 121.957 156.409 121.524L155.846 122.35ZM156.92 123.72C157.181 124.32 157.32 125.059 157.32 125.951H158.32C158.32 124.959 158.165 124.078 157.838 123.322L156.92 123.72ZM157.32 125.951C157.32 126.107 157.317 126.246 157.311 126.369L158.31 126.415C158.317 126.274 158.32 126.119 158.32 125.951H157.32ZM157.312 126.368C157.306 126.492 157.3 126.601 157.294 126.694L158.292 126.756C158.298 126.657 158.304 126.544 158.31 126.416L157.312 126.368ZM157.793 126.225H151.367V127.225H157.793V126.225ZM154.184 121.923C153.289 121.923 152.516 122.246 151.898 122.885L152.617 123.581C153.044 123.14 153.555 122.923 154.184 122.923V121.923ZM151.896 122.888C151.266 123.547 150.955 124.51 150.886 125.687L151.884 125.747C151.946 124.692 152.217 123.999 152.619 123.578L151.896 122.888ZM151.385 126.217H156.758V125.217H151.385V126.217ZM157.258 125.706C157.233 124.54 156.971 123.578 156.387 122.912L155.635 123.572C155.999 123.986 156.235 124.674 156.258 125.728L157.258 125.706ZM156.389 122.914C155.816 122.255 155.068 121.923 154.184 121.923V122.923C154.788 122.923 155.257 123.137 155.633 123.57L156.389 122.914ZM161.26 126.608H160.76V127.108H161.26V126.608ZM161.26 125.564V125.064H160.76V125.564H161.26ZM168.298 125.564H168.798V125.064H168.298V125.564ZM168.298 126.608V127.108H168.798V126.608H168.298ZM161.76 126.608V125.564H160.76V126.608H161.76ZM161.26 126.064H168.298V125.064H161.26V126.064ZM167.798 125.564V126.608H168.798V125.564H167.798ZM168.298 126.108H161.26V127.108H168.298V126.108ZM177.075 129.704L177.353 130.119L177.355 130.118L177.075 129.704ZM177.615 127.67L177.152 127.86L177.155 127.867L177.158 127.874L177.615 127.67ZM176.976 127.049L176.727 127.483L176.736 127.488L176.976 127.049ZM175.473 126.527L175.353 127.012L175.357 127.013L175.473 126.527ZM173.709 125.969L173.517 126.431L173.519 126.432L173.709 125.969ZM172.566 125.168L172.179 125.485L172.179 125.485L172.566 125.168ZM172.602 122.522L172.213 122.208L172.212 122.209L172.602 122.522ZM173.826 121.676L174 122.145L174.003 122.143L173.826 121.676ZM177.516 121.676L177.345 122.146L177.347 122.147L177.516 121.676ZM178.902 122.396L179.325 122.663L179.569 122.275L179.204 121.998L178.902 122.396ZM178.38 123.224L178.091 123.632L178.522 123.937L178.803 123.491L178.38 123.224ZM177.219 122.612L177.397 122.145L177.397 122.145L177.219 122.612ZM173.844 122.765L174.153 123.158L174.153 123.158L173.844 122.765ZM173.583 124.538L173.191 124.849L173.196 124.855L173.202 124.861L173.583 124.538ZM174.402 125.069L174.211 125.531L174.217 125.534L174.402 125.069ZM175.932 125.555L175.801 126.038L175.805 126.039L175.932 125.555ZM177.552 126.14L177.773 125.692L177.773 125.692L177.552 126.14ZM178.632 127.031L179.041 126.743L179.041 126.743L178.632 127.031ZM178.452 130.055L178.088 129.712L178.087 129.713L178.452 130.055ZM177.012 130.919L177.154 131.398L177.158 131.397L177.012 130.919ZM173.061 130.811L172.863 131.27L172.864 131.271L173.061 130.811ZM171.639 129.947L171.257 129.624L170.939 130L171.31 130.324L171.639 129.947ZM172.332 129.128L172.653 128.745L172.272 128.425L171.95 128.805L172.332 129.128ZM173.619 129.884L173.435 130.349L173.44 130.351L173.619 129.884ZM175.185 130.663C176.044 130.663 176.785 130.501 177.353 130.119L176.796 129.289C176.453 129.519 175.933 129.663 175.185 129.663V130.663ZM177.355 130.118C177.937 129.725 178.268 129.17 178.268 128.48H177.268C177.268 128.798 177.137 129.059 176.795 129.29L177.355 130.118ZM178.268 128.48C178.268 128.115 178.208 127.772 178.071 127.466L177.158 127.874C177.226 128.024 177.268 128.221 177.268 128.48H178.268ZM178.077 127.48C177.921 127.099 177.599 126.819 177.215 126.61L176.736 127.488C177.013 127.639 177.117 127.773 177.152 127.86L178.077 127.48ZM177.225 126.615C176.838 126.393 176.281 126.206 175.589 126.041L175.357 127.013C176.021 127.172 176.466 127.333 176.727 127.483L177.225 126.615ZM175.593 126.042C174.932 125.878 174.368 125.699 173.898 125.506L173.519 126.432C174.045 126.647 174.658 126.84 175.353 127.012L175.593 126.042ZM173.9 125.507C173.466 125.327 173.159 125.104 172.953 124.851L172.179 125.485C172.513 125.892 172.968 126.203 173.517 126.431L173.9 125.507ZM172.953 124.851C172.774 124.633 172.661 124.318 172.661 123.854H171.661C171.661 124.482 171.817 125.043 172.179 125.485L172.953 124.851ZM172.661 123.854C172.661 123.432 172.777 123.102 172.992 122.835L172.212 122.209C171.839 122.674 171.661 123.232 171.661 123.854H172.661ZM172.991 122.836C173.227 122.544 173.555 122.31 174 122.145L173.652 121.207C173.064 121.426 172.577 121.756 172.213 122.208L172.991 122.836ZM174.003 122.143C174.46 121.97 174.986 121.879 175.59 121.879V120.879C174.885 120.879 174.236 120.986 173.649 121.209L174.003 122.143ZM175.59 121.879C176.285 121.879 176.867 121.972 177.345 122.146L177.686 121.206C177.073 120.984 176.371 120.879 175.59 120.879V121.879ZM177.347 122.147C177.863 122.332 178.277 122.55 178.6 122.794L179.204 121.998C178.783 121.678 178.273 121.416 177.685 121.205L177.347 122.147ZM178.479 122.129L177.957 122.957L178.803 123.491L179.325 122.663L178.479 122.129ZM178.668 122.816C178.284 122.544 177.859 122.321 177.397 122.145L177.041 123.079C177.431 123.227 177.78 123.412 178.091 123.632L178.668 122.816ZM177.397 122.145C176.895 121.954 176.289 121.869 175.599 121.869V122.869C176.216 122.869 176.691 122.946 177.041 123.079L177.397 122.145ZM175.599 121.869C174.744 121.869 174.011 121.998 173.535 122.372L174.153 123.158C174.349 123.004 174.786 122.869 175.599 122.869V121.869ZM173.535 122.372C173.087 122.724 172.84 123.198 172.84 123.764H173.84C173.84 123.526 173.929 123.334 174.153 123.158L173.535 122.372ZM172.84 123.764C172.84 124.166 172.946 124.54 173.191 124.849L173.974 124.227C173.896 124.128 173.84 123.986 173.84 123.764H172.84ZM173.202 124.861C173.442 125.145 173.798 125.361 174.211 125.531L174.593 124.607C174.25 124.465 174.059 124.327 173.964 124.215L173.202 124.861ZM174.217 125.534C174.62 125.694 175.151 125.861 175.801 126.038L176.063 125.072C175.429 124.901 174.939 124.744 174.586 124.604L174.217 125.534ZM175.805 126.039C176.398 126.194 176.905 126.378 177.331 126.588L177.773 125.692C177.275 125.446 176.702 125.24 176.059 125.071L175.805 126.039ZM177.331 126.588C177.729 126.785 178.02 127.031 178.223 127.319L179.041 126.743C178.728 126.299 178.299 125.951 177.773 125.692L177.331 126.588ZM178.223 127.319C178.406 127.579 178.519 127.943 178.519 128.453H179.519C179.519 127.799 179.374 127.215 179.041 126.743L178.223 127.319ZM178.519 128.453C178.519 129.02 178.361 129.422 178.088 129.712L178.816 130.398C179.299 129.884 179.519 129.218 179.519 128.453H178.519ZM178.087 129.713C177.783 130.037 177.381 130.283 176.866 130.441L177.158 131.397C177.818 131.195 178.377 130.865 178.816 130.397L178.087 129.713ZM176.87 130.44C176.33 130.599 175.766 130.68 175.176 130.68V131.68C175.858 131.68 176.518 131.587 177.154 131.398L176.87 130.44ZM175.176 130.68C174.388 130.68 173.754 130.563 173.257 130.351L172.864 131.271C173.519 131.551 174.296 131.68 175.176 131.68V130.68ZM173.259 130.352C172.726 130.122 172.299 129.859 171.968 129.57L171.31 130.324C171.735 130.695 172.256 131.008 172.863 131.27L173.259 130.352ZM172.021 130.27L172.714 129.451L171.95 128.805L171.257 129.624L172.021 130.27ZM172.011 129.511C172.427 129.86 172.903 130.139 173.435 130.349L173.803 129.419C173.363 129.245 172.981 129.02 172.653 128.745L172.011 129.511ZM173.44 130.351C173.987 130.56 174.57 130.663 175.185 130.663V129.663C174.684 129.663 174.223 129.58 173.798 129.417L173.44 130.351ZM190.145 130.55L190.418 130.968L190.823 130.704L190.572 130.291L190.145 130.55ZM189.011 131.018L188.893 130.532L189.011 131.018ZM185.546 130.424L185.203 130.788L185.205 130.79L185.546 130.424ZM184.745 122.486H185.245V121.986H184.745V122.486ZM182.513 122.486H182.013V122.986H182.513V122.486ZM182.513 121.55V121.05H182.013V121.55H182.513ZM184.745 121.55V122.05H185.245V121.55H184.745ZM184.745 119.372L184.685 118.876L184.245 118.929V119.372H184.745ZM185.861 119.237H186.361V118.673L185.801 118.741L185.861 119.237ZM185.861 121.55H185.361V122.05H185.861V121.55ZM189.191 121.55L189.684 121.631L189.779 121.05H189.191V121.55ZM189.038 122.486V122.986H189.463L189.531 122.567L189.038 122.486ZM185.861 122.486V121.986H185.361V122.486H185.861ZM186.302 129.767L185.945 130.117L185.952 130.124L186.302 129.767ZM189.659 129.749L190.086 129.49L189.843 129.089L189.427 129.306L189.659 129.749ZM189.871 130.132C189.616 130.298 189.293 130.435 188.893 130.532L189.129 131.504C189.616 131.385 190.049 131.21 190.418 130.968L189.871 130.132ZM188.893 130.532C188.48 130.633 188.109 130.68 187.778 130.68V131.68C188.203 131.68 188.654 131.619 189.129 131.504L188.893 130.532ZM187.778 130.68C186.919 130.68 186.31 130.454 185.887 130.058L185.205 130.79C185.861 131.402 186.74 131.68 187.778 131.68V130.68ZM185.889 130.06C185.459 129.655 185.245 129.155 185.245 128.525H184.245C184.245 129.419 184.564 130.185 185.203 130.788L185.889 130.06ZM185.245 128.525V122.486H184.245V128.525H185.245ZM184.745 121.986H182.513V122.986H184.745V121.986ZM183.013 122.486V121.55H182.013V122.486H183.013ZM182.513 122.05H184.745V121.05H182.513V122.05ZM185.245 121.55V119.372H184.245V121.55H185.245ZM184.805 119.868L185.921 119.733L185.801 118.741L184.685 118.876L184.805 119.868ZM185.361 119.237V121.55H186.361V119.237H185.361ZM185.861 122.05H189.191V121.05H185.861V122.05ZM188.697 121.469L188.544 122.405L189.531 122.567L189.684 121.631L188.697 121.469ZM189.038 121.986H185.861V122.986H189.038V121.986ZM185.361 122.486V128.498H186.361V122.486H185.361ZM185.361 128.498C185.361 129.134 185.534 129.698 185.945 130.117L186.659 129.417C186.482 129.236 186.361 128.954 186.361 128.498H185.361ZM185.952 130.124C186.391 130.555 187.055 130.708 187.805 130.708V129.708C187.151 129.708 186.812 129.567 186.652 129.41L185.952 130.124ZM187.805 130.708C188.204 130.708 188.582 130.661 188.936 130.564L188.671 129.6C188.414 129.671 188.126 129.708 187.805 129.708V130.708ZM188.936 130.564C189.274 130.471 189.593 130.348 189.89 130.192L189.427 129.306C189.197 129.426 188.945 129.525 188.671 129.6L188.936 130.564ZM189.231 130.008L189.717 130.809L190.572 130.291L190.086 129.49L189.231 130.008ZM200.938 130.55L201.211 130.968L201.616 130.704L201.365 130.291L200.938 130.55ZM199.804 131.018L199.686 130.532L199.804 131.018ZM196.339 130.424L195.996 130.788L195.998 130.79L196.339 130.424ZM195.538 122.486H196.038V121.986H195.538V122.486ZM193.306 122.486H192.806V122.986H193.306V122.486ZM193.306 121.55V121.05H192.806V121.55H193.306ZM195.538 121.55V122.05H196.038V121.55H195.538ZM195.538 119.372L195.478 118.876L195.038 118.929V119.372H195.538ZM196.654 119.237H197.154V118.673L196.594 118.741L196.654 119.237ZM196.654 121.55H196.154V122.05H196.654V121.55ZM199.984 121.55L200.477 121.631L200.572 121.05H199.984V121.55ZM199.831 122.486V122.986H200.256L200.324 122.567L199.831 122.486ZM196.654 122.486V121.986H196.154V122.486H196.654ZM197.095 129.767L196.738 130.117L196.745 130.124L197.095 129.767ZM200.452 129.749L200.879 129.49L200.636 129.089L200.22 129.306L200.452 129.749ZM200.664 130.132C200.409 130.298 200.086 130.435 199.686 130.532L199.922 131.504C200.409 131.385 200.842 131.21 201.211 130.968L200.664 130.132ZM199.686 130.532C199.273 130.633 198.902 130.68 198.571 130.68V131.68C198.996 131.68 199.447 131.619 199.922 131.504L199.686 130.532ZM198.571 130.68C197.712 130.68 197.103 130.454 196.68 130.058L195.998 130.79C196.654 131.402 197.533 131.68 198.571 131.68V130.68ZM196.682 130.06C196.252 129.655 196.038 129.155 196.038 128.525H195.038C195.038 129.419 195.357 130.185 195.996 130.788L196.682 130.06ZM196.038 128.525V122.486H195.038V128.525H196.038ZM195.538 121.986H193.306V122.986H195.538V121.986ZM193.806 122.486V121.55H192.806V122.486H193.806ZM193.306 122.05H195.538V121.05H193.306V122.05ZM196.038 121.55V119.372H195.038V121.55H196.038ZM195.598 119.868L196.714 119.733L196.594 118.741L195.478 118.876L195.598 119.868ZM196.154 119.237V121.55H197.154V119.237H196.154ZM196.654 122.05H199.984V121.05H196.654V122.05ZM199.49 121.469L199.337 122.405L200.324 122.567L200.477 121.631L199.49 121.469ZM199.831 121.986H196.654V122.986H199.831V121.986ZM196.154 122.486V128.498H197.154V122.486H196.154ZM196.154 128.498C196.154 129.134 196.327 129.698 196.738 130.117L197.452 129.417C197.275 129.236 197.154 128.954 197.154 128.498H196.154ZM196.745 130.124C197.184 130.555 197.848 130.708 198.598 130.708V129.708C197.944 129.708 197.605 129.567 197.445 129.41L196.745 130.124ZM198.598 130.708C198.997 130.708 199.375 130.661 199.729 130.564L199.464 129.6C199.207 129.671 198.919 129.708 198.598 129.708V130.708ZM199.729 130.564C200.067 130.471 200.386 130.348 200.683 130.192L200.22 129.306C199.99 129.426 199.738 129.525 199.464 129.6L199.729 130.564ZM200.024 130.008L200.51 130.809L201.365 130.291L200.879 129.49L200.024 130.008Z" fill="white" />
    </g>
  </g>
  <defs>
    <filter id="filter0_d" x="52.4972" y="116.775" width="157.119" height="22.9686" filterUnits="userSpaceOnUse" color-interpolation-filters="sRGB">
      <feFlood flood-opacity="0" result="BackgroundImageFix" />
      <feColorMatrix in="SourceAlpha" type="matrix" values="0 0 0 0 0 0 0 0 0 0 0 0 0 0 0 0 0 0 127 0" />
      <feOffset dx="4" dy="4" />
      <feGaussianBlur stdDeviation="2" />
      <feColorMatrix type="matrix" values="0 0 0 0 1 0 0 0 0 1 0 0 0 0 1 0 0 0 0.1 0" />
      <feBlend mode="normal" in2="BackgroundImageFix" result="effect1_dropShadow" />
      <feBlend mode="normal" in="SourceGraphic" in2="effect1_dropShadow" result="shape" />
    </filter>
    <radialGradient id="paint0_radial" cx="0" cy="0" r="1" gradientUnits="userSpaceOnUse" gradientTransform="translate(125 125) rotate(-90) scale(125)">
      <stop stop-color="white" stop-opacity="0.3" />
      <stop offset="1" stop-color="white" stop-opacity="0.25" />
    </radialGradient>
  </defs>
</svg>
